# xmcd
#
# Track frame offsets:
#	150
#	9988
#	33425
#	45699
#	57567
#	69247
#	82032
#	92696
#	103245
#	122595
#	135543
#	147609
#	158650
#	170294
#	181976
#	194156
#	206401
#	218315
#	229033
#	240868
#
# Disc length: 3403 seconds
# Revision: 0
# Processed by: cddbd v1.5.2PL0 Copyright (c) Steve Scherf et al.
# Submitted via: dBpowerAMP V12.0
#
DISCID=0e0d4914
DTITLE=B.B. King - His Best The Electric B.B.King
DYEAR=1968
DGENRE=Blues
TTITLE0=Tired Of Your Jive
TTITLE1=Don't Answer The Door
TTITLE2=The B. B. Jones
TTITLE3=All Over Again
TTITLE4=Paying The Cost To Be The Boss
TTITLE5=Think It Over
TTITLE6=I Done Got Wise
TTITLE7=Meet My Happiness
TTITLE8=Sweet Sixteen (Parts 1 and 2)
TTITLE9=You Put It On Me
TTITLE10=I Don't Want You Cutting Off Your Hair
TTITLE11=Waitin' On You
TTITLE12=Messy But Good (from Motion Picture Sountrack 'For The Love Of Ivy')
TTITLE13=Night Life
TTITLE14=How Blue Can You Get (Single Version)
TTITLE15=Rockin' Awhile
TTITLE16=Help The Poor (Single Version)
TTITLE17=Stop Leadin' Me On (Single Version)
TTITLE18=Never Trust A Woman (Single Version)
TTITLE19=Sloppy Drunk (Single Version) (Mono)
EXTD=
EXTT0=
EXTT1=
EXTT2=
EXTT3=
EXTT4=
EXTT5=
EXTT6=
EXTT7=
EXTT8=
EXTT9=
EXTT10=
EXTT11=
EXTT12=
EXTT13=
EXTT14=
EXTT15=
EXTT16=
EXTT17=
EXTT18=
EXTT19=
PLAYORDER=
